<svg width="66" height="22" viewBox="0 0 66 22" fill="none" xmlns="http://www.w3.org/2000/svg">
<path d="M4.36364 17.4545H8.72727V21.8182H0V-4.76837e-07H4.36364V4.36364H8.72727V8.72727H4.36364V17.4545ZM8.72727 8.72727H13.0909V17.4545H8.72727V8.72727ZM17.4375 4.36364H26.1648V8.72727H21.8011V21.8182H17.4375V4.36364Z" fill="#E6C53E"/>
<path d="M34.8793 4.36364H43.6065V21.8182H34.8793V17.4545H39.2429V8.72727H34.8793V4.36364ZM30.5156 8.72727H34.8793V17.4545H30.5156V8.72727ZM52.3168 17.4545H56.6804V21.8182H47.9531V-4.76837e-07H52.3168V4.36364H56.6804V8.72727H52.3168V17.4545ZM61.0312 17.4545H65.3949V21.8182H61.0312V17.4545Z" fill="black"/>
</svg>
