<svg width="6" height="6" viewBox="0 0 6 6" fill="none" xmlns="http://www.w3.org/2000/svg">
<path d="M2.928 5.73597C2.336 5.73597 1.816 5.61597 1.368 5.37597C0.936005 5.11997 0.600004 4.77597 0.360004 4.34397C0.120004 3.91197 4.47035e-06 3.42397 4.47035e-06 2.87997C4.47035e-06 2.31997 0.120004 1.82397 0.360004 1.39197C0.600004 0.959972 0.936005 0.623972 1.368 0.383972C1.816 0.127972 2.336 -2.81334e-05 2.928 -2.81334e-05C3.536 -2.81334e-05 4.056 0.127972 4.488 0.383972C4.936 0.623972 5.28 0.959972 5.52 1.39197C5.76 1.82397 5.88 2.31997 5.88 2.87997C5.88 3.42397 5.76 3.91197 5.52 4.34397C5.28 4.77597 4.936 5.11997 4.488 5.37597C4.056 5.61597 3.536 5.73597 2.928 5.73597Z" fill="#6B6E76" fill-opacity="0.2"/>
</svg>
